<svg id="Layer_1" data-name="Layer 1" xmlns="http://www.w3.org/2000/svg" viewBox="0 0 525.17 86.39"><defs><style>.cls-1{fill:#231f20;}</style></defs><path class="cls-1" d="M70.68,75H54.57L40.69,54.12H26.3V75H11.56v-60H53.2c10.54,0,14.91,4.28,14.91,14.91v8.22c0,9.68-3.77,14.14-12.42,14.82ZM26.3,26V43.49H47.46c4.54,0,5.91-1.45,5.91-6V32c0-4.54-1.37-6-5.91-6Z"/><path class="cls-1" d="M99.21,75C87.9,75,82.59,69.79,82.59,58.4V31.67c0-11.4,5.31-16.62,16.62-16.62H126.8c11.31,0,16.62,5.22,16.62,16.62V58.4c0,11.39-5.31,16.62-16.62,16.62Zm22.45-12.51c5.22,0,7-1.88,7-7V34.58c0-5.14-1.8-7-7-7H104.35c-5.14,0-7,1.88-7,7V55.49c0,5.14,1.89,7,7,7Z"/><path class="cls-1" d="M215.64,55.23v6.94c0,8.91-4,12.85-12.85,12.85H158.24v-60h42.84c8.82,0,12.85,3.94,12.85,12.85V33c0,5.65-1.89,9.25-5.74,10.79C213.16,45,215.64,48.8,215.64,55.23ZM173,26.36V39.21h21.41c3.69,0,4.8-1.12,4.8-4.8V31.15c0-3.51-1.28-4.79-4.8-4.79Zm27.92,27.5c0-3.51-1.11-4.8-4.79-4.8H173V63.71h23.13c3.51,0,4.79-1.28,4.79-4.8Z"/><path class="cls-1" d="M245.88,75c-11.31,0-16.62-5.23-16.62-16.62V31.67c0-11.4,5.31-16.62,16.62-16.62h27.59c11.31,0,16.62,5.22,16.62,16.62V58.4c0,11.39-5.31,16.62-16.62,16.62Zm22.45-12.51c5.23,0,7-1.88,7-7V34.58c0-5.14-1.8-7-7-7H251c-5.14,0-7,1.88-7,7V55.49c0,5.14,1.88,7,7,7Z"/><path class="cls-1" d="M320.76,75c-11.31,0-16.62-5.23-16.62-16.62V31.67c0-11.4,5.31-16.62,16.62-16.62h25.36c11.31,0,16.62,5.22,16.62,16.62v7H348.52V34.41c0-5.23-1.8-7-7-7H325.9c-5.14,0-7,1.8-7,7V55.66c0,5.22,1.88,7,7,7h15.6c5.22,0,7-1.8,7-7V50.77h14.22V58.4c0,11.39-5.31,16.62-16.62,16.62Z"/><path class="cls-1" d="M393.24,75c-11.31,0-16.62-5.23-16.62-16.62V31.67c0-11.4,5.31-16.62,16.62-16.62h27.59c11.31,0,16.62,5.22,16.62,16.62V58.4c0,11.39-5.31,16.62-16.62,16.62Zm22.45-12.51c5.23,0,7-1.88,7-7V34.58c0-5.14-1.8-7-7-7H398.38c-5.14,0-7,1.88-7,7V55.49c0,5.14,1.88,7,7,7Z"/><path class="cls-1" d="M498,15.05h14.22V75H500.42L466.49,36V75H452.27v-60h12.51L498,53.26Z"/></svg>